# xmcd
#
# Track frame offsets: 
#        150
#        13946
#        25593
#        43157
#        55710
#        68987
#        78667
#        104472
#        116082
#        131244
#        143805
#        157780
#        170683
#
# Disc length: 2550 seconds
#
# Revision: 0
# Processed by: cddbd v1.5.1PL0 Copyright (c) Steve Scherf et al.
# Submitted via: ExactAudioCopy v0.95a5
#
DISCID=b309f40d
DTITLE=Hoochie Coochie Band - I Love My Baby
DYEAR=2000
DGENRE=Blues
TTITLE0=I Love My Baby
TTITLE1=Crazy Mixed Up World
TTITLE2=That's All Right
TTITLE3=I'll Be Back
TTITLE4=I'm The Good One
TTITLE5=Rich and Poor
TTITLE6=Same Thing
TTITLE7=(I Want Your) Boogie
TTITLE8=That Mood
TTITLE9=I'm Ready
TTITLE10=Nobody's Business
TTITLE11=Can't Be Satisfied
TTITLE12=ilovemybaby
EXTD=
EXTT0=
EXTT1=
EXTT2=
EXTT3=
EXTT4=
EXTT5=
EXTT6=
EXTT7=
EXTT8=
EXTT9=
EXTT10=
EXTT11=
EXTT12=
PLAYORDER=
